<?xml version="1.0" encoding="UTF-8" standalone="no"?>
<svg
   xmlns:dc="http://purl.org/dc/elements/1.1/"
   xmlns:cc="http://creativecommons.org/ns#"
   xmlns:rdf="http://www.w3.org/1999/02/22-rdf-syntax-ns#"
   xmlns:svg="http://www.w3.org/2000/svg"
   xmlns="http://www.w3.org/2000/svg"
   xmlns:sodipodi="http://sodipodi.sourceforge.net/DTD/sodipodi-0.dtd"
   xmlns:inkscape="http://www.inkscape.org/namespaces/inkscape"
   width="2000mm"
   height="2000mm"
   viewBox="0 0 2000 2000"
   version="1.1"
   id="svg8"
   inkscape:version="1.0.2-2 (e86c870879, 2021-01-15)"
   sodipodi:docname="logoCtec.svg"
   inkscape:export-filename="C:\Users\Familia\Desktop\logoCtec.png"
   inkscape:export-xdpi="96"
   inkscape:export-ydpi="96">
  <defs
     id="defs2" />
  <sodipodi:namedview
     id="base"
     pagecolor="#ffffff"
     bordercolor="#666666"
     borderopacity="1.0"
     inkscape:pageopacity="0.0"
     inkscape:pageshadow="2"
     inkscape:zoom="0.09763936"
     inkscape:cx="844.50752"
     inkscape:cy="3938.9477"
     inkscape:document-units="mm"
     inkscape:current-layer="layer1"
     inkscape:document-rotation="0"
     showgrid="false"
     inkscape:window-width="1920"
     inkscape:window-height="1017"
     inkscape:window-x="-8"
     inkscape:window-y="-8"
     inkscape:window-maximized="1"
     borderlayer="false"
     units="mm" />
  <metadata
     id="metadata5">
    <rdf:RDF>
      <cc:Work
         rdf:about="">
        <dc:format>image/svg+xml</dc:format>
        <dc:type
           rdf:resource="http://purl.org/dc/dcmitype/StillImage" />
        <dc:title />
      </cc:Work>
    </rdf:RDF>
  </metadata>
  <g
     inkscape:label="Layer 1"
     inkscape:groupmode="layer"
     id="layer1">
    <path
       style="fill:#000000;stroke:#000000;stroke-width:2.64767px;stroke-linecap:butt;stroke-linejoin:miter;stroke-opacity:1"
       d="m 478.80904,597.81593 -82.75545,6.06046 -50.32289,5.83989 -58.25889,8.88864 -47.66638,9.69652 -58.25888,12.12069 -47.66636,14.54483 -48.549079,20.20127 -28.246734,14.54494 -15.006075,9.69651 -7.944402,6.46441 c 0,0 -47.666361,40.40249 -4.41355,82.42099 43.252809,42.01856 125.3449,61.41171 125.3449,61.41171 l 54.72805,12.12078 65.32057,11.31262 107.69069,16.161 82.09204,8.08057 79.44395,6.4643 73.26503,7.27244 135.05465,2.42407 97.98085,1.61622 91.80191,-1.61622 90.91931,-3.23206 140.3509,-10.50461 78.5613,-11.31275 68.8514,-8.0805 63.5551,-10.5047 66.2033,-15.35284 67.0859,-21.00925 43.253,-16.96909 38.839,-19.39313 12.3582,-12.12071 c 0,0 43.2527,-36.36222 -1.7656,-74.34051 -45.0182,-37.97835 -121.814,-58.98749 -121.814,-58.98749 l -39.7219,-10.50471 -57.3761,-12.92878 -48.5492,-10.50461 -45.0182,-7.27242 -47.6664,-7.27254 -52.9627,-5.65624 -28.2467,-2.42417 -17.6541,8.08041 -27.3641,11.31275 -28.2467,8.08044 -30.895,4.8483 -24.7158,2.42416 -51.19714,7.27241 -60.02441,3.2322 h -200.3753 l -71.49953,-3.2322 -42.3701,-4.04019 -47.66638,-7.27248 -44.13549,-12.12065 -24.71595,-8.88852 z"
       id="path24" />
    <path
       style="fill:#000000;stroke-width:0.844554"
       d="m 772.87041,914.8752 c -16.26395,-0.34187 -56.97895,-1.07076 -90.47777,-1.62107 l -60.90713,-1.00035 -36.6324,-3.58611 c -20.1479,-1.97232 -56.29492,-5.20587 -80.32672,-7.18562 -24.03177,-1.97974 -61.76763,-5.40149 -83.85747,-7.60367 C 333.92273,885.23015 189.50685,860.86594 141.73243,846.8195 107.21196,836.6698 72.54638,821.08378 49.398288,805.305 39.78962,798.75528 23.571494,783.74421 19.642344,777.76372 7.6571894,759.52101 8.004716,740.34211 20.678633,720.57596 c 12.009486,-18.72983 36.765196,-34.56354 86.958307,-55.61828 18.09726,-7.59139 28.63854,-11.38771 48.96856,-17.6358 26.21322,-8.05609 41.80638,-11.62092 117.9749,-26.97107 19.90643,-4.0117 63.21253,-10.4978 94.89138,-14.21215 22.98134,-2.69458 97.59001,-8.8684 107.17183,-8.8684 1.85845,0 11.79657,3.11923 24.55044,7.7056 11.7854,4.23806 31.3585,10.43417 43.49577,13.76909 18.507,5.0852 25.77883,6.64069 45.06709,9.63964 30.79036,4.78744 58.55785,7.41402 98.37333,9.30529 29.1104,1.38276 46.03332,1.57245 140.35098,1.57318 96.52415,7e-4 110.03003,-0.15777 135.0548,-1.58443 21.94324,-1.25108 32.55077,-2.27334 50.31448,-4.84858 12.3801,-1.79479 29.4606,-3.99481 37.9566,-4.88878 44.3263,-4.66419 68.6485,-11.29739 109.4559,-29.85097 l 8.386,-3.81266 15.8887,1.41445 c 45.5812,4.05778 75.762,7.99466 136.3787,17.78945 45.0283,7.27591 151.9096,31.98744 182.2798,42.14402 56.5648,18.91685 103.6448,45.65084 119.2282,67.70274 11.6733,16.51874 11.0596,35.22575 -1.7254,52.60464 -1.7558,2.38682 -7.3003,8.34406 -12.3208,13.23852 l -9.1284,8.8989 -19.7803,9.81546 c -26.9007,13.34891 -54.3488,23.96419 -94.9849,36.73417 -61.614,19.36233 -120.8479,31.49264 -198.8765,40.72747 -20.1479,2.38456 -54.3088,6.86787 -75.913,9.96288 -21.6044,3.0949 -45.0404,6.03923 -52.0801,6.54277 -7.0395,0.50355 -36.831,2.73837 -66.2033,4.96629 -74.6501,5.66244 -134.61292,7.89864 -223.76707,8.3449 -36.41187,0.18184 -79.51022,0.0498 -95.77419,-0.289 z"
       id="path26" />
    <path
       style="fill:#1a1a1a;stroke:#000000;stroke-width:2.64767px;stroke-linecap:butt;stroke-linejoin:miter;stroke-opacity:1"
       d="m 956.56638,509.51827 52.07992,3.2322 36.1913,5.65637 37.9564,8.0805 32.6603,8.0804 14.1233,4.04029 V 91.757048 l -22.0677,-16.160969 -21.185,-13.736841 -28.2468,-14.544871 -35.3084,-13.736853 -27.36405,-8.080484 -36.19113,-8.888521 -45.90095,-5.656347 -128.87573,-0.808078 37.0738,5.656348 36.19109,6.464377 16.77154,7.272433 19.41963,10.504659 13.24073,8.080485 15.00604,13.736829 4.41361,28.281712 26.48126,1.616085 z"
       id="path30" />
    <path
       style="fill:#000000;stroke:#000000;stroke-width:2.64767px;stroke-linecap:butt;stroke-linejoin:miter;stroke-opacity:1"
       d="m 784.43784,10.144092 -156.23978,7.272457 -33.54299,6.464396 -22.06775,8.080484 -18.53693,6.464399 -13.24069,8.888539 -11.47527,10.504635 -10.5925,14.54486 0.88274,462.203878 30.89484,-7.27246 28.24677,-5.65632 49.43175,-7.27242 56.49349,-5.65632 271.87483,0.80808 L 953.03551,91.757036 926.55425,90.140963 922.14071,61.85925 907.13459,48.122421 874.47434,29.53729 857.70283,22.264844 Z"
       id="path32" />
    <path
       style="fill:#d4aa00;stroke:#000000;stroke-width:2.64767px;stroke-linecap:butt;stroke-linejoin:miter;stroke-opacity:1"
       d="m 519.62466,534.56774 -24.7159,9.69663 -13.24067,8.88853 c 0,0 -37.94165,21.5809 -2.85905,44.66303 23.42335,15.41105 0,0 0,0 l 44.34651,15.94068 44.13549,12.12065 51.19722,6.46439 52.0799,4.04033 52.96261,1.61599 265.69599,-0.80808 106.80794,-14.54487 73.6142,-28.36737 c 0,0 37.7967,-24.36992 -10.0591,-42.74096 l -54.728,-21.00918 -96.2155,-17.77712 -52.07992,-3.23216 -271.87483,-0.80808 -78.56125,8.8886 -40.60467,7.27245 z"
       id="path34"
       sodipodi:nodetypes="cccscccccccccsccccccc" />
    <ellipse
       style="fill:#000080;stroke-width:2.64767"
       id="path36"
       cx="632.17029"
       cy="574.56616"
       rx="44.576881"
       ry="40.806461" />
    <ellipse
       style="fill:#000080;stroke-width:3.27683"
       id="path36-4"
       cx="824.15991"
       cy="576.58624"
       rx="55.169407"
       ry="50.503056" />
    <ellipse
       style="fill:#000080;stroke-width:2.01852"
       id="path36-8"
       cx="1004.2328"
       cy="576.58643"
       rx="33.984356"
       ry="31.109879" />
    <path
       style="fill:#ffffff;stroke:#000000;stroke-width:2.64767px;stroke-linecap:butt;stroke-linejoin:miter;stroke-opacity:1"
       d="m 1326.0109,876.33825 22.6726,28.53794 13.2257,28.53799 19.8384,49.29286 -243.7302,162.57986 -15.1149,-36.3211 -32.1195,-59.6702 -26.4514,-46.6985 -38.7322,-41.50975 -36.84299,-27.67317 -31.17485,-12.97176 -39.67703,-6.91841 -145.03412,1.3511 -48.62747,-1.3511 -32.1195,10.37756 -36.84295,31.1323 -66.12831,73.50683 -33.0642,62.2646 -26.45135,69.183 -10.39156,83.0194 -3.77875,76.9661 12.28095,83.8841 22.6726,63.1296 29.28536,52.752 36.843,50.1575 48.17918,47.5633 51.95801,33.7266 56.68141,19.0253 56.68147,8.6479 61.40486,-0.8641 60.46021,-16.431 56.68163,-25.0788 40.6216,-33.7267 38.7322,-45.8336 24.5621,-38.0505 40.6217,-89.0732 145.4823,76.1014 -161.5421,97.7209 c 0,0 -20.7831,47.5631 24.5618,43.2392 l 102.9715,-62.2648 85.9668,-51.8871 50.0686,36.321 -30.23,76.9661 -41.5666,79.5603 -74.6305,87.3433 -61.4048,50.1577 -53.8474,34.5914 -75.5753,31.997 -88.80094,26.8085 -70.85177,15.5661 -67.07302,3.4592 -79.3541,-3.4592 -64.23892,-15.5661 -66.12831,-23.3492 -53.8474,-23.3491 -47.2345,-31.1324 -71.79653,-56.2113 -61.40486,-58.8055 -55.73676,-74.3715 -44.40046,-80.4252 -34.95354,-87.3434 -29.28541,-87.3433 -10.39161,-80.4254 -0.94466,-62.2645 0.94466,-68.3181 7.55753,-72.6421 17.94913,-77.8309 18.89382,-63.9941 28.34072,-68.31817 47.23452,-57.94072 74.63056,9.51267 111.47353,12.10697 97.51693,8.24246 151.3849,2.62136 149.7576,-1.35119 119.97579,-4.3238 131.1094,-9.39431 z"
       id="path67" />
    <path
       style="fill:#000000;stroke:#000000;stroke-width:2.64767px;stroke-linecap:butt;stroke-linejoin:miter;stroke-opacity:1"
       d="m 1298.6149,1505.9031 -161.5421,97.7209 c 0,0 -23.6173,51.0225 24.5618,43.2392 l 188.9383,-114.1519 242.7855,-150.4729 -24.562,-43.2394 z"
       id="path69"
       sodipodi:nodetypes="ccccccc" />
    <ellipse
       style="fill:#000000;stroke-width:2.72545"
       id="path71"
       cx="1766.2368"
       cy="1258.574"
       rx="227.67043"
       ry="239.54585" />
    <ellipse
       style="fill:#ffffff;stroke-width:3.38242"
       id="path73"
       cx="1768.126"
       cy="1259.8711"
       rx="183.26999"
       ry="195.00935" />
  </g>
</svg>
